<?xml version="1.0" standalone="no"?>
<!DOCTYPE svg PUBLIC "-//W3C//DTD SVG 20010904//EN"
 "http://www.w3.org/TR/2001/REC-SVG-20010904/DTD/svg10.dtd">
<svg version="1.0" xmlns="http://www.w3.org/2000/svg"
 width="512.000000pt" height="512.000000pt" viewBox="0 0 512.000000 512.000000"
 preserveAspectRatio="xMidYMid meet">
<metadata>
Created by potrace 1.11, written by Peter Selinger 2001-2013
</metadata>
<g transform="translate(0.000000,512.000000) scale(0.100000,-0.100000)"
fill="#000000" stroke="none">
<path d="M1862 4234 c-8 -4 3 -23 33 -56 59 -65 111 -154 137 -233 14 -46 27
-66 45 -74 103 -47 178 59 123 174 -14 29 -43 63 -77 89 -79 62 -221 117 -261
100z"/>
<path d="M1150 3937 c0 -50 -27 -144 -58 -200 -15 -27 -53 -73 -86 -101 -116
-101 -116 -100 -116 -150 0 -58 32 -86 98 -86 116 0 222 132 239 298 l6 52
828 0 c608 0 829 -3 829 -11 0 -6 -25 -72 -56 -145 -73 -176 -65 -192 52 -97
38 32 108 97 156 145 65 66 93 88 113 88 14 0 34 4 44 10 16 8 6 22 -83 109
l-101 100 -55 -54 -56 -55 -840 0 -840 0 -13 65 c-12 58 -16 65 -37 65 -20 0
-24 -5 -24 -33z"/>
<path d="M2517 3524 l-58 -54 -576 0 c-522 0 -575 -1 -569 -16 3 -9 9 -27 12
-40 l6 -24 547 0 546 -1 -92 -89 c-51 -49 -117 -108 -147 -130 l-55 -42 -90 7
-91 8 0 -157 0 -156 -536 0 c-531 0 -535 0 -530 -20 19 -67 -41 -60 542 -60
l524 0 0 -312 c0 -172 -4 -319 -9 -327 -12 -19 -163 -17 -378 5 -51 5 -53 4
-53 -18 0 -23 6 -25 74 -36 150 -23 216 -60 238 -135 11 -38 12 -38 52 -32
126 19 197 56 230 120 20 38 21 58 24 388 l3 347 515 0 c512 0 554 3 554 34 0
15 -212 196 -229 196 -5 0 -35 -34 -67 -75 l-59 -75 -357 0 -358 0 0 108 0
108 32 9 c18 6 38 21 44 33 8 16 54 45 135 86 68 35 173 93 233 129 59 37 119
67 131 67 13 0 36 5 52 11 l28 11 -60 54 c-33 30 -80 72 -105 93 l-45 39 -58
-54z"/>
<path d="M3183 2550 c-265 -48 -495 -248 -580 -505 -24 -72 -27 -95 -27 -225
0 -131 3 -153 27 -225 14 -44 43 -109 64 -145 47 -80 188 -223 265 -269 211
-123 485 -133 698 -26 98 50 120 47 169 -17 63 -85 492 -506 523 -513 40 -10
89 10 132 54 46 47 59 95 39 142 -17 41 -426 455 -500 506 -29 20 -55 44 -59
55 -3 11 11 54 35 106 60 131 76 198 75 332 0 88 -5 133 -23 195 -71 253 -274
453 -526 520 -73 20 -241 27 -312 15z m219 -281 c89 -19 158 -58 229 -128 76
-77 113 -147 131 -250 39 -228 -110 -456 -337 -516 -217 -56 -435 47 -533 252
-36 76 -37 81 -37 193 0 112 1 117 37 193 94 196 301 300 510 256z"/>
</g>
</svg>
